<?xml version="1.0" encoding="utf-8"?>
<!-- Generator: Adobe Illustrator 19.0.0, SVG Export Plug-In . SVG Version: 6.00 Build 0)  -->
<svg version="1.1" id="Layer_1" xmlns="http://www.w3.org/2000/svg" xmlns:xlink="http://www.w3.org/1999/xlink" x="0px" y="0px"
	 viewBox="0 0 478 828" style="enable-background:new 0 0 478 828;" xml:space="preserve">
<style type="text/css">
	.st0{fill:none;}
</style>
<g id="XMLID_353_">
	<path id="XMLID_359_" class="st0" d="M365.9,74h-28.5c-6.1,0-8.3-0.3-8.7,7.4c-0.4,8-5.9,13-13.3,15.3c-2.5,0.8-5.3,1.2-8,1.2h-5.4
		H181.1h-5.4c-2.7,0-5.5-0.5-8-1.3c-7.4-2.3-13-7.3-13.3-15.3c-0.4-7.7-2.6-7.4-8.7-7.4h-28.8C99.4,74,85,87.4,85,104.8v613.3
		c0,17.5,14.4,31.9,31.9,31.9h249c17.5,0,31.1-14.4,31.1-31.9V104.8C397,87.4,383.3,74,365.9,74z"/>
	<path id="XMLID_354_" d="M416,106.6c0-28.8-23.2-51.6-52-51.6H115.3C86.5,55,63,77.9,63,106.6v94.3v519.5
		c0,28.8,23.5,52.6,52.3,52.6H364c28.8,0,52-23.8,52-52.6V106.6z M277.1,74.1c2.4,0,4.4,2,4.4,4.4s-2,4.4-4.4,4.4s-4.4-2-4.4-4.4
		S274.7,74.1,277.1,74.1z M222,77h39c1.7,0,3,1,3,2.5s-1.3,2.5-3,2.5h-39c-1.7,0-3-1-3-2.5S220.3,77,222,77z M397,718.1
		c0,17.5-13.7,31.9-31.1,31.9h-249C99.4,750,85,735.6,85,718.1V104.8C85,87.4,99.4,74,116.9,74h28.8c6.1,0,8.3-0.4,8.7,7.3
		c0.4,8,5.9,13.2,13.3,15.5c2.5,0.8,5.3,1.2,8,1.2h5.4h120.7h5.4c2.7,0,5.5-0.6,8-1.4c7.4-2.3,13-7.1,13.3-15.1
		c0.4-7.7,2.6-7.5,8.7-7.5h28.5c17.5,0,31.1,13.4,31.1,30.8V718.1z"/>
</g>
</svg>
